PathFileType	4	(X/Y/Z)	c:/Users/goper/Files/vsCode/490R/osim_files/A04/A04_Fast_04.trc
DataRate	CameraRate	NumFrames	NumMarkers	Units                	OrigDataRate	OrigDataStartFrame	OrigNumFrames
120.00	120.00	4	36	mm	120.0	933	1066
                Frame#	Time	LPSIS			LASIS			LTH1			LTH2			LTH3			LTH4			LLFE			LMFE			LSH1			LSH2			LSH3			LSH4			LLMAL			LMMAL			LCAL			LMTP5			LTOE			LMTP1			RPSIS			RASIS			RTH1			RTH2			RTH3			RTH4			RLFE			RMFE			RSH1			RSH2			RSH3			RSH4			RLMAL			RMMAL			RCAL			RMTP1			RTOE			RMTP5		
		X1	Y1	Z1	X2	Y2	Z2	X3	Y3	Z3	X4	Y4	Z4	X5	Y5	Z5	X6	Y6	Z6	X7	Y7	Z7	X8	Y8	Z8	X9	Y9	Z9	X10	Y10	Z10	X11	Y11	Z11	X12	Y12	Z12	X13	Y13	Z13	X14	Y14	Z14	X15	Y15	Z15	X16	Y16	Z16	X17	Y17	Z17	X18	Y18	Z18	X19	Y19	Z19	X20	Y20	Z20	X21	Y21	Z21	X22	Y22	Z22	X23	Y23	Z23	X24	Y24	Z24	X25	Y25	Z25	X26	Y26	Z26	X27	Y27	Z27	X28	Y28	Z28	X29	Y29	Z29	X30	Y30	Z30	X31	Y31	Z31	X32	Y32	Z32	X33	Y33	Z33	X34	Y34	Z34	X35	Y35	Z35	X36	Y36	Z36

933	7.76667	-2642.28125	1071.43835	346.08252	-2863.40356	1015.66803	429.89606	-2757.46069	700.81683	439.98062	-2759.24487	656.49890	435.68057	-2818.52466	700.02802	440.15134	-2813.34863	655.64307	435.55173	-2774.59912	531.78345	421.47751	-2800.35693	541.36890	284.78397	-2738.78687	430.33325	413.66498	-2744.97900	387.37302	409.08176	-2800.56128	431.66730	407.30078	-2796.94995	388.93875	401.41724	-2715.18506	110.87280	342.47449	-2744.40234	116.45190	261.25888	-2659.55615	70.29522	281.73209	-2855.25586	65.08731	388.59860	-2908.56689	81.82655	332.15302	-2895.29907	65.84236	286.55588	-2639.68506	1057.92444	239.71823	-2859.75684	1031.42834	145.77182	-2887.13940	742.14813	89.58905	-2911.26978	707.05188	90.16010	-2943.20264	772.11627	89.96452	-2957.70532	726.23236	90.29829	-3007.16138	596.29211	109.48576	-3016.92212	590.47937	231.68881	-2880.55396	396.03214	119.89958	-2867.65967	351.22931	127.49992	-2939.84131	372.28745	114.14880	-2917.47583	330.64899	119.36122	-2818.12134	162.33536	121.26224	-2849.40088	161.49310	253.41319	-2740.06079	134.31973	200.74924	-2956.21411	65.55609	227.66992	-2983.49072	81.60579	181.95021	-2940.26099	64.35754	109.38979
934	7.77500	-2651.01953	1071.18762	345.48233	-2871.83350	1015.12354	429.94736	-2764.04541	700.77734	439.52609	-2765.61230	656.59680	435.61533	-2825.41797	699.74945	439.89673	-2818.75317	655.79761	435.28506	-2779.51904	531.96973	421.35901	-2805.14209	540.95502	284.42712	-2742.60913	430.51816	413.35693	-2748.47290	387.54221	408.84720	-2804.39795	431.34119	406.96667	-2800.37036	388.55646	401.03192	-2715.55200	111.26762	342.67422	-2744.66113	116.55418	261.24783	-2659.71973	70.58604	281.73898	-2855.53052	64.99617	388.55347	-2908.86157	81.59052	332.09122	-2895.44971	65.57774	286.50253	-2648.16626	1057.91418	238.95683	0.00000	0.00000	0.00000	-2898.73706	743.23694	89.46017	-2923.03149	708.90857	89.73045	-2954.22852	774.22595	89.65371	-2971.74170	730.37268	91.97195	0.00000	0.00000	0.00000	-3028.81299	592.87964	231.70421	-2901.29102	394.21216	119.36526	-2893.07422	347.00015	126.80700	-2962.59204	372.34714	114.35891	-2941.48096	329.08194	118.61378	-2850.36621	156.78259	119.98074	-2881.11279	157.31262	252.34348	-2773.00195	125.20573	199.14032	-2992.39502	66.42161	227.31757	-3019.07080	83.67503	181.83372	-2977.14990	64.49786	108.95399
935	7.78333	-2659.14331	1070.88489	344.71283	-2880.31763	1014.47644	429.94183	-2770.86133	700.80713	439.46960	-2771.89233	656.63104	435.48022	-2832.27466	699.28046	439.44131	-2826.02490	655.17242	435.01627	-2784.07642	531.66052	420.65964	-2809.78735	540.39655	284.01428	-2746.44580	430.83441	413.11591	-2751.81445	387.75229	408.56863	-2808.24146	431.00522	406.60492	-2803.81689	388.30765	400.81693	-2715.84399	111.26134	342.43613	-2744.71240	116.67811	261.03192	-2659.92920	70.86453	281.72888	-2855.61133	64.94063	388.38641	-2909.11694	81.34676	331.97028	-2895.58545	65.37280	286.41101	-2656.23657	1057.83496	238.16264	0.00000	0.00000	0.00000	-2909.57300	744.42700	89.18965	-2934.07446	710.33441	89.40285	-2964.85034	775.92981	89.34087	-2982.79272	732.27942	91.72205	-3009.73853	609.35828	102.34969	-3040.49927	594.90735	231.65575	-2922.66968	391.12704	118.46616	-2914.48926	344.36511	125.69984	-2983.58618	371.47028	113.66335	-2965.36084	327.69659	118.03014	-2882.55005	151.71992	118.84126	-2912.18921	153.08559	251.58275	-2808.47998	115.78287	197.25171	-3028.30688	67.98855	227.07996	-3054.53760	86.56578	181.78825	-3014.31714	65.65196	108.97855
936	7.79167	-2668.10132	1070.44690	344.18665	-2888.94482	1013.78040	429.83313	-2777.57861	700.81659	439.31088	-2778.36499	656.65723	435.36621	-2838.68384	698.64014	438.94901	-2831.95801	654.72308	434.44919	-2788.59863	531.10883	420.40814	-2815.13110	539.95197	283.74496	-2750.10132	431.04449	412.74249	-2755.04224	387.85870	408.27133	-2812.23096	430.86020	406.46365	-2806.84937	387.85831	400.42343	-2716.12720	111.44976	342.41370	-2745.02246	116.73954	260.97421	-2660.00830	71.09754	281.67923	-2855.79932	64.84698	388.34348	-2909.29785	81.06326	331.86200	-2895.70923	65.11950	286.30856	-2664.69946	1057.45276	237.55730	-2884.60840	1030.22046	145.68343	-2921.50342	744.75409	89.59486	-2945.55518	711.04987	89.35447	-2975.09229	777.23584	89.21459	-2994.93799	733.64526	91.92074	0.00000	0.00000	0.00000	-3051.67480	596.50836	231.61824	-2944.65381	388.05881	117.72338	0.00000	0.00000	0.00000	-3004.55884	370.51807	112.99686	-2988.96729	326.34924	117.39826	-2914.82690	147.18379	117.81544	-2943.73511	149.86894	250.78586	-2842.08545	107.80566	195.78101	-3063.80444	70.26624	226.96175	-3089.48120	90.01824	181.78767	-3050.06421	66.97269	108.39259
